<svg xmlns="http://www.w3.org/2000/svg" viewBox="0 0 223.2 38.7"><defs><style>.a{fill:#fff;fill-rule:evenodd;}</style></defs><path class="a" d="M92.4,28V25H91.3v-.6h2.9V25H93.1v3ZM95,28V24.4h2.7V25H95.8v.8h1.8v.6H95.8v1h2V28Zm5.9-1.3.7.2a1.934,1.934,0,0,1-.5.9,1.689,1.689,0,0,1-1,.3,1.656,1.656,0,0,1-1.2-.5,1.9,1.9,0,0,1-.5-1.3,1.978,1.978,0,0,1,.5-1.4,1.656,1.656,0,0,1,1.2-.5,1.5,1.5,0,0,1,1.1.4,1.612,1.612,0,0,1,.4.7l-.7.2c0-.2-.1-.3-.3-.4a.764.764,0,0,0-.5-.2.908.908,0,0,0-.7.3c-.2.2-.2.5-.2.9a2.151,2.151,0,0,0,.2,1,.864.864,0,0,0,.6.3.764.764,0,0,0,.5-.2.755.755,0,0,0,.4-.7Zm1.6,1.3V24.4h.7l1.5,2.4V24.4h.7V28h-.7l-1.5-2.4V28Zm3.8-1.7a2,2,0,0,1,.2-.9c.1-.2.2-.3.3-.5a.85.85,0,0,1,.5-.3,1.949,1.949,0,0,1,.8-.1,1.9,1.9,0,0,1,1.3.5,1.978,1.978,0,0,1,.5,1.4,2.168,2.168,0,0,1-.5,1.4,1.728,1.728,0,0,1-1.3.5,1.9,1.9,0,0,1-1.3-.5,2.976,2.976,0,0,1-.5-1.5Zm.8-.1a1.222,1.222,0,0,0,.3.9.967.967,0,0,0,1.4,0,1.5,1.5,0,0,0,0-1.8.967.967,0,0,0-1.4,0,1.222,1.222,0,0,0-.3.9Zm3.6,1.8V24.4h.7v3h1.8V28Zm3.2-1.7a2,2,0,0,1,.2-.9c.1-.2.2-.3.3-.5a.85.85,0,0,1,.5-.3,1.949,1.949,0,0,1,.8-.1,1.9,1.9,0,0,1,1.3.5,1.978,1.978,0,0,1,.5,1.4,2.168,2.168,0,0,1-.5,1.4,1.728,1.728,0,0,1-1.3.5,1.9,1.9,0,0,1-1.3-.5,2.26,2.26,0,0,1-.5-1.5Zm.7-.1a1.222,1.222,0,0,0,.3.9.967.967,0,0,0,1.4,0,1.5,1.5,0,0,0,0-1.8.967.967,0,0,0-1.4,0,1.222,1.222,0,0,0-.3.9Zm5.3.5v-.6h1.6v1.4a4.348,4.348,0,0,1-.7.4,2.92,2.92,0,0,1-.9.2,2.959,2.959,0,0,1-1-.2,1.344,1.344,0,0,1-.6-.7,2.6,2.6,0,0,1,0-2,2.336,2.336,0,0,1,.7-.7,2,2,0,0,1,.9-.2,1.493,1.493,0,0,1,1,.3,1.126,1.126,0,0,1,.5.8l-.7.1c-.1-.2-.1-.3-.3-.4a.764.764,0,0,0-.5-.2,1.136,1.136,0,0,0-.8.3,1.222,1.222,0,0,0-.3.9,1.493,1.493,0,0,0,.3,1,1.074,1.074,0,0,0,1.2.2c.2-.1.3-.1.4-.2v-.5h-.8Zm2.5,1.3V24.4h.7V28Zm4.9,0h-.8l-.3-.8h-1.4l-.3.8h-.8l1.4-3.6h.8l1.4,3.6ZM126,26.6l-.5-1.3-.5,1.3Zm3.7,1.4V24.4h2.7V25h-1.9v.8h1.8v.6h-1.8v1h2V28Zm5.5-3.6h2c.1,0,.3.1.4.1l.3.3a.6.6,0,0,1,.1.4.9.9,0,0,1-.1.5,1.381,1.381,0,0,1-.4.3,2.186,2.186,0,0,1,.5.3c.1.2.2.3.2.5a.9.9,0,0,1-.1.5,1.38,1.38,0,0,1-.3.4c-.1.1-.3.1-.5.2h-2.1V24.4Zm.7.6v.8h1c.1,0,.2-.1.3-.1a.4.4,0,0,0-.3-.7h-1Zm0,1.5v1h1.2c.1,0,.2-.1.3-.1a.5.5,0,0,0,0-.6l-.2-.2a3.536,3.536,0,0,0-.6-.1Zm3.2,1.5V24.4h.7V28Zm1.5-1.7a2,2,0,0,1,.2-.9c.1-.2.2-.3.3-.5a.85.85,0,0,1,.5-.3,1.949,1.949,0,0,1,.8-.1,1.9,1.9,0,0,1,1.3.5,1.978,1.978,0,0,1,.5,1.4,2.168,2.168,0,0,1-.5,1.4,1.728,1.728,0,0,1-1.3.5,1.9,1.9,0,0,1-1.3-.5,2.976,2.976,0,0,1-.5-1.5Zm.8-.1a1.222,1.222,0,0,0,.3.9.967.967,0,0,0,1.4,0,1.5,1.5,0,0,0,0-1.8.967.967,0,0,0-1.4,0c-.3.2-.3.5-.3.9Zm4.4,1.8V25h-1.1v-.6h2.9V25h-1.1v3Zm2.5,0V24.4H151V25h-2v.8h1.8v.6H149v1h2V28Zm5.9-1.3.7.2a1.934,1.934,0,0,1-.5.9,1.689,1.689,0,0,1-1,.3,1.656,1.656,0,0,1-1.2-.5,1.9,1.9,0,0,1-.5-1.3,1.978,1.978,0,0,1,.5-1.4,1.656,1.656,0,0,1,1.2-.5,1.5,1.5,0,0,1,1.1.4,1.612,1.612,0,0,1,.4.7l-.7.2c0-.2-.1-.3-.3-.4a.764.764,0,0,0-.5-.2.908.908,0,0,0-.7.3c-.2.2-.2.5-.2.9a2.151,2.151,0,0,0,.2,1,.864.864,0,0,0,.6.3.764.764,0,0,0,.5-.2.755.755,0,0,0,.4-.7Zm1.7,1.3V24.4h.7l1.5,2.4V24.4h.7V28H158l-1.5-2.4V28Zm3.7-1.7a2,2,0,0,1,.2-.9c.1-.2.2-.3.3-.5a.85.85,0,0,1,.5-.3,1.949,1.949,0,0,1,.8-.1,1.9,1.9,0,0,1,1.3.5,1.978,1.978,0,0,1,.5,1.4,2.168,2.168,0,0,1-.5,1.4,1.728,1.728,0,0,1-1.3.5,1.9,1.9,0,0,1-1.3-.5,2.976,2.976,0,0,1-.5-1.5Zm.8-.1a1.222,1.222,0,0,0,.3.9.967.967,0,0,0,1.4,0,1.5,1.5,0,0,0,0-1.8.967.967,0,0,0-1.4,0,1.222,1.222,0,0,0-.3.9ZM164,28V24.4h.7v3h1.8V28Zm3.2-1.7a2,2,0,0,1,.2-.9c.1-.2.2-.3.3-.5a.85.85,0,0,1,.5-.3,1.949,1.949,0,0,1,.8-.1,1.9,1.9,0,0,1,1.3.5,1.978,1.978,0,0,1,.5,1.4,2.168,2.168,0,0,1-.5,1.4,1.728,1.728,0,0,1-1.3.5,1.9,1.9,0,0,1-1.3-.5,2.26,2.26,0,0,1-.5-1.5Zm.7-.1a1.222,1.222,0,0,0,.3.9.967.967,0,0,0,1.4,0,1.5,1.5,0,0,0,0-1.8.967.967,0,0,0-1.4,0,1.222,1.222,0,0,0-.3.9Zm5.3.5v-.6h1.6v1.4a4.348,4.348,0,0,1-.7.4,2.92,2.92,0,0,1-.9.2,2.959,2.959,0,0,1-1-.2,1.344,1.344,0,0,1-.6-.7,2.6,2.6,0,0,1,0-2,2.336,2.336,0,0,1,.7-.7,2,2,0,0,1,.9-.2,1.493,1.493,0,0,1,1,.3,1.126,1.126,0,0,1,.5.8l-.7.1c-.1-.2-.1-.3-.3-.4a.764.764,0,0,0-.5-.2,1.136,1.136,0,0,0-.8.3,1.222,1.222,0,0,0-.3.9,1.493,1.493,0,0,0,.3,1,1.074,1.074,0,0,0,1.2.2c.2-.1.3-.1.4-.2v-.5h-.8Zm2.5,1.3V24.4h.7V28Zm4.9,0h-.8l-.3-.8h-1.4l-.3.8H177l1.4-3.6h.8l1.4,3.6Zm-1.3-1.4-.5-1.3-.5,1.3Zm3.7-2.2h1.3a1.483,1.483,0,0,1,.7.1,2.186,2.186,0,0,1,.5.3.864.864,0,0,1,.3.6,2.219,2.219,0,0,1,.1.9,1.949,1.949,0,0,1-.1.8.918.918,0,0,1-.4.6,2.186,2.186,0,0,1-.5.3,1.268,1.268,0,0,1-.6.1H183V24.4Zm.7.6v2.4h.9c.1,0,.2-.1.3-.2s.1-.2.2-.3c0-.2.1-.4.1-.7s0-.5-.1-.6c0-.1-.1-.3-.2-.3-.1-.1-.2-.1-.3-.2h-.9Zm3,1.3a2,2,0,0,1,.2-.9c.1-.2.2-.3.3-.5a.85.85,0,0,1,.5-.3,1.949,1.949,0,0,1,.8-.1,1.9,1.9,0,0,1,1.3.5,1.978,1.978,0,0,1,.5,1.4,2.168,2.168,0,0,1-.5,1.4,1.728,1.728,0,0,1-1.3.5,1.9,1.9,0,0,1-1.3-.5,2.976,2.976,0,0,1-.5-1.5Zm.8-.1a1.222,1.222,0,0,0,.3.9.967.967,0,0,0,1.4,0,1.5,1.5,0,0,0,0-1.8.967.967,0,0,0-1.4,0,1.222,1.222,0,0,0-.3.9ZM196,28h-.8l-.3-.8h-1.4l-.3.8h-.8l1.4-3.6h.8L196,28Zm-1.3-1.4-.5-1.3-.5,1.3Zm2,1.4V24.4h1.1l.6,2.5.6-2.5h1.1V28h-.7V25.2l-.7,2.8H198l-.7-2.8V28Zm7.7,0h-.8l-.3-.8h-1.4l-.3.8h-.8l1.4-3.6h.8l1.4,3.6Zm-1.3-1.4-.5-1.3-.5,1.3Zm1.6,1.4v-.7l1.9-2.3H205v-.6h2.6V25l-2,2.4h2V28Zm3.6-1.7a2,2,0,0,1,.2-.9c.1-.2.2-.3.3-.5a.85.85,0,0,1,.5-.3,1.949,1.949,0,0,1,.8-.1,1.9,1.9,0,0,1,1.3.5,1.978,1.978,0,0,1,.5,1.4,2.168,2.168,0,0,1-.5,1.4,1.728,1.728,0,0,1-1.3.5,1.9,1.9,0,0,1-1.3-.5,2.26,2.26,0,0,1-.5-1.5Zm.7-.1a1.222,1.222,0,0,0,.3.9.967.967,0,0,0,1.4,0,1.5,1.5,0,0,0,0-1.8.967.967,0,0,0-1.4,0,1.222,1.222,0,0,0-.3.9Zm3.6,1.8V24.4h.7l1.5,2.4V24.4h.7V28h-.7l-1.5-2.4V28Zm7.2,0H219l-.3-.8h-1.4l-.3.8h-.8l1.4-3.6h.8l1.4,3.6Zm-1.4-1.4-.5-1.3-.5,1.3Zm1.8.3.7-.1a.55.55,0,0,0,.3.5.764.764,0,0,0,.5.2.749.749,0,0,0,.5-.1c.1-.1.2-.2.2-.3s0-.2-.1-.2c0-.1-.1-.1-.3-.2a3.933,3.933,0,0,1-.6-.2c-.4-.1-.7-.2-.8-.4a.908.908,0,0,1-.3-.7.764.764,0,0,1,.2-.5c.1-.2.3-.3.4-.4a1.483,1.483,0,0,1,.7-.1,1.327,1.327,0,0,1,1,.3,2.01,2.01,0,0,1,.4.8h-.7a.52.52,0,0,0-.2-.4,1.3,1.3,0,0,0-1,0c-.1.1-.1.1-.1.2s0,.2.1.2a.956.956,0,0,0,.7.2,3.386,3.386,0,0,1,.8.3.781.781,0,0,1,.4.4,1.083,1.083,0,0,1,.1.6,1.421,1.421,0,0,1-.2.6,1,1,0,0,1-.5.4,1.949,1.949,0,0,1-.8.1,1.327,1.327,0,0,1-1-.3A1.885,1.885,0,0,1,220.2,26.9Z"/><path class="a" d="M93.6,20.2H91.7V10.6h1.9v9.6Zm9.7,0h-1.9l-3.9-6.5h0v6.4H95.6V10.5h1.9l3.9,6.4h0V10.5h1.9v9.7Zm6.7-2.5a.975.975,0,0,0-.4-.9,5.349,5.349,0,0,0-1.3-.6,6.475,6.475,0,0,1-2.5-1.2,2.271,2.271,0,0,1-.9-1.8,2.166,2.166,0,0,1,1-1.9,3.9,3.9,0,0,1,2.5-.7,4.237,4.237,0,0,1,2.6.8,2.321,2.321,0,0,1,.9,2.1H110a1.366,1.366,0,0,0-.4-1.1,1.594,1.594,0,0,0-1.2-.4,1.8,1.8,0,0,0-1.1.3.975.975,0,0,0-.4.9.909.909,0,0,0,.4.8,11.255,11.255,0,0,0,1.5.7,5.369,5.369,0,0,1,2.4,1.2,2.241,2.241,0,0,1,.8,1.9,2.058,2.058,0,0,1-1,1.9,3.9,3.9,0,0,1-2.5.7,5.029,5.029,0,0,1-2.7-.8,2.712,2.712,0,0,1-1.1-2.3h1.9a1.364,1.364,0,0,0,.5,1.2,1.955,1.955,0,0,0,1.4.4,2.133,2.133,0,0,0,1.2-.3,1.222,1.222,0,0,0,.3-.9Zm10-5.6h-2.7v8.1h-1.9V12.1h-2.7V10.6H120v1.5Zm3.1,8.1h-1.9V10.6h1.9v9.6Zm8.4-8.1h-2.7v8.1h-1.9V12.1h-2.7V10.6h7.3v1.5Zm8.6-1.4V17a3.1,3.1,0,0,1-1.1,2.5,4.1,4.1,0,0,1-2.8.9,4.277,4.277,0,0,1-2.8-.9,3.25,3.25,0,0,1-1.1-2.5V10.7h1.9V17a2.456,2.456,0,0,0,.5,1.5,2.21,2.21,0,0,0,2.8,0A2.07,2.07,0,0,0,138,17V10.7Zm8.4,1.4h-2.7v8.1h-1.9V12.1h-2.7V10.6h7.3v1.5Zm8.6,4.2a4.172,4.172,0,0,1-1.1,2.9,3.633,3.633,0,0,1-2.9,1.1,3.847,3.847,0,0,1-2.9-1.2,4.173,4.173,0,0,1-1.1-2.9V14.5a4.172,4.172,0,0,1,1.1-2.9,4.1,4.1,0,0,1,5.8,0,4.173,4.173,0,0,1,1.1,2.9v1.8Zm-2-1.7a2.61,2.61,0,0,0-.6-1.8,1.8,1.8,0,0,0-1.5-.7,1.683,1.683,0,0,0-1.5.7,2.73,2.73,0,0,0-.5,1.8v1.7a3.557,3.557,0,0,0,.5,1.9,1.8,1.8,0,0,0,1.5.7,1.579,1.579,0,0,0,1.5-.7,2.883,2.883,0,0,0,.6-1.9V14.6Zm13.5-2.5h-2.7v8.1H164V12.1h-2.7V10.6h7.3v1.5Zm3,4.3v3.8h-1.9V10.6H173a4.209,4.209,0,0,1,2.6.7,2.583,2.583,0,0,1,.9,2.1,2.01,2.01,0,0,1-.4,1.3,3.331,3.331,0,0,1-1.1.9,1.836,1.836,0,0,1,1.2.8,3.255,3.255,0,0,1,.4,1.4v.7a2.2,2.2,0,0,0,.1.8.918.918,0,0,0,.4.6V20h-2a.779.779,0,0,1-.3-.7c0-.3-.1-.6-.1-.9v-.7a1.384,1.384,0,0,0-1.5-1.5h-1.6Zm0-1.5H173a2.133,2.133,0,0,0,1.2-.3,1.159,1.159,0,0,0,.4-1,1.16,1.16,0,0,0-.4-1,1.594,1.594,0,0,0-1.2-.4h-1.4v2.7Zm11.6,3.3h-3.1l-.6,2.1h-2l3.2-9.6h2l3.2,9.6h-2l-.7-2.1Zm-2.6-1.5h2.2l-1.1-3.4h0l-1.1,3.4Zm13.9,3.5h-1.9l-3.9-6.5h0v6.4h-1.9V10.5h1.9l3.9,6.4h0V10.5h1.9v9.7Zm6.8-2.5a.975.975,0,0,0-.4-.9,5.349,5.349,0,0,0-1.3-.6,6.475,6.475,0,0,1-2.5-1.2,2.271,2.271,0,0,1-.9-1.8,2.166,2.166,0,0,1,1-1.9,3.9,3.9,0,0,1,2.5-.7,4.237,4.237,0,0,1,2.6.8,2.321,2.321,0,0,1,.9,2.1h-1.9a1.366,1.366,0,0,0-.4-1.1,1.594,1.594,0,0,0-1.2-.4,1.8,1.8,0,0,0-1.1.3.975.975,0,0,0-.4.9.91.91,0,0,0,.4.8,11.255,11.255,0,0,0,1.5.7,5.369,5.369,0,0,1,2.4,1.2,2.241,2.241,0,0,1,.8,1.9,2.058,2.058,0,0,1-1,1.9,3.9,3.9,0,0,1-2.5.7,5.029,5.029,0,0,1-2.7-.8,2.712,2.712,0,0,1-1.1-2.3h1.9a1.364,1.364,0,0,0,.5,1.2,1.955,1.955,0,0,0,1.4.4,2.133,2.133,0,0,0,1.2-.3,1.9,1.9,0,0,0,.3-.9Zm5.3,2.5h-1.9V10.6h1.9v9.6Zm3.9-3.8v3.8h-1.9V10.6h3.3a4.209,4.209,0,0,1,2.6.7,2.583,2.583,0,0,1,.9,2.1,2.01,2.01,0,0,1-.4,1.3,3.331,3.331,0,0,1-1.1.9,1.836,1.836,0,0,1,1.2.8,3.255,3.255,0,0,1,.4,1.4v.7a2.2,2.2,0,0,0,.1.8.918.918,0,0,0,.4.6V20h-2a.779.779,0,0,1-.3-.7c0-.3-.1-.6-.1-.9v-.7a1.384,1.384,0,0,0-1.5-1.5h-1.6Zm0-1.5h1.4a2.133,2.133,0,0,0,1.2-.3,1.159,1.159,0,0,0,.4-1,1.16,1.16,0,0,0-.4-1,1.594,1.594,0,0,0-1.2-.4h-1.4v2.7ZM222.6,16H219v2.7h4.2v1.5h-6.1V10.6h6.1v1.5H219v2.4h3.5V16Z"/><path class="a" d="M39.2,4.3A44.651,44.651,0,0,0,31,5V.6a.669.669,0,0,0-.7-.6H25.2a.576.576,0,0,0-.6.6c0,.7-.1,3.3,0,4.6a1.346,1.346,0,0,1-.5,1.2L19.5,11a1.656,1.656,0,0,1-1.2.5H15.4a1.136,1.136,0,0,1-.8-.3L12,8.6a1.136,1.136,0,0,1-.3-.8V5.9a.265.265,0,0,0-.3-.3H9a.265.265,0,0,0-.3.3V8.4a.265.265,0,0,0,.3.3h1.9a1.136,1.136,0,0,1,.8.3l2.6,2.6a1.136,1.136,0,0,1,.3.8v2.9a1.845,1.845,0,0,1-.5,1.2l-3.4,3.4a1.656,1.656,0,0,1-1.2.5H6.8a.43.43,0,0,0-.4.4v3.4a.43.43,0,0,0,.4.4H9.6a1.222,1.222,0,0,1,.9.4l1.6,1.6a1.268,1.268,0,0,1,.4.9v3.7a.472.472,0,0,0,.5.5h4.1a.472.472,0,0,0,.5-.5V27a.472.472,0,0,0-.5-.5c-1,0-2.6-.1-3.7,0a.975.975,0,0,1-.9-.4L11,24.5a1.268,1.268,0,0,1-.4-.9V21.5a1.845,1.845,0,0,1,.5-1.2l3.4-3.4a1.656,1.656,0,0,1,1.2-.5H19a.472.472,0,0,0,.5-.5V12.6a1.845,1.845,0,0,1,.5-1.2l4.6-4.6a1.656,1.656,0,0,1,1.2-.5h4.6v6.4a1,1,0,0,1-1,1H26.9V11.6a.265.265,0,0,0-.3-.3H24.4a.265.265,0,0,0-.3.3v1.7a.908.908,0,0,1-.3.7L18,19.8a.908.908,0,0,1-.7.3H15a.43.43,0,0,0-.4.4v2.8a.43.43,0,0,0,.4.4h2.8a.43.43,0,0,0,.4-.4V21a.908.908,0,0,1,.3-.7l5.8-5.8a.908.908,0,0,1,.7-.3h1.6v6.2h5.3L42.7,9.9a.6.6,0,0,1,1,.4.758.758,0,0,1-.2.4L33.4,20.4H44L52.7,12a.6.6,0,0,1,1,.4.758.758,0,0,1-.2.4l-7.9,7.6H56.2l6.5-6.2a.6.6,0,0,1,1,.4.758.758,0,0,1-.2.4l-5.6,5.4H75C67.3,10.7,54.2,4.3,39.2,4.3ZM28.3,32.6H23.6a.684.684,0,0,0-.7.7V38a.684.684,0,0,0,.7.7h4.7A.684.684,0,0,0,29,38V33.3a.684.684,0,0,0-.7-.7ZM7.6,28.3a.43.43,0,0,1,.4.4v2.7a.43.43,0,0,1-.4.4H5a.43.43,0,0,1-.4-.4V28.7a.43.43,0,0,1,.4-.4ZM2.7,18.9H.5a.265.265,0,0,0-.3.3v2.2a.265.265,0,0,0,.3.3H2.7a.265.265,0,0,0,.3-.3V19.2a.265.265,0,0,0-.3-.3ZM26,21.6h5.7L42.6,32.1a.568.568,0,1,0,.8-.8L33.3,21.6H44L52.7,30a.568.568,0,1,0,.8-.8l-7.9-7.6H56.2l6.5,6.2a.568.568,0,1,0,.8-.8l-5.6-5.4H75c-7.6,9.7-20.8,16.1-35.8,16.1a53.222,53.222,0,0,1-8.1-.6V31.2a.789.789,0,0,0-.8-.8H22.6a1.11,1.11,0,0,1-1.1-1.1V22.7a1.11,1.11,0,0,1,1.1-1.1ZM.6,7H4.7a.645.645,0,0,1,.6.6v3.8a.908.908,0,0,0,.3.7L7.5,14a.908.908,0,0,0,.7.3H9.8a.265.265,0,0,1,.3.3v2.1a.265.265,0,0,1-.3.3H7.6a.265.265,0,0,1-.3-.3V15.1a.908.908,0,0,0-.3-.7L5.1,12.5a1.08,1.08,0,0,0-.7-.3c-1,.1-3,0-3.8,0a.5.5,0,0,1-.6-.5V7.6A.645.645,0,0,1,.6,7Z"/></svg>