<svg xmlns="http://www.w3.org/2000/svg" xmlns:xlink="http://www.w3.org/1999/xlink" viewBox="0 0 298.803 44.93"><defs><style>.a,.b{fill-rule:evenodd;}.a{fill:url(#a);}.b{fill:#132c49;}</style><linearGradient id="a" x1="-0.001" y1="0.499" x2="1" y2="0.499" gradientUnits="objectBoundingBox"><stop offset="0" stop-color="#00965f"/><stop offset="1" stop-color="#fcc200"/></linearGradient></defs><g transform="translate(-240 -28)"><g transform="translate(206.702 28)"><path class="a" d="M74.1,5.108a51.839,51.839,0,0,0-9.52.813V.7a.749.749,0,0,0-.7-.7H57.96a.669.669,0,0,0-.7.7c0,.813-.116,3.831,0,5.341a1.563,1.563,0,0,1-.58,1.393l-5.457,5.341a1.923,1.923,0,0,1-1.393.58H46.466A1.318,1.318,0,0,1,45.538,13L42.519,9.985a1.318,1.318,0,0,1-.348-.929V6.85a.308.308,0,0,0-.348-.348h-2.9a.308.308,0,0,0-.348.348v2.9a.308.308,0,0,0,.348.348h2.206a1.318,1.318,0,0,1,.929.348l3.019,3.019a1.318,1.318,0,0,1,.348.929v3.367a2.142,2.142,0,0,1-.58,1.393L40.894,23.1a1.923,1.923,0,0,1-1.393.58H36.366a.5.5,0,0,0-.464.464V28.1a.5.5,0,0,0,.464.464h3.251a1.418,1.418,0,0,1,1.045.464l1.858,1.858a1.472,1.472,0,0,1,.464,1.045v4.3a.548.548,0,0,0,.58.58h4.76a.548.548,0,0,0,.58-.58V31.347a.548.548,0,0,0-.58-.58c-1.161,0-3.019-.116-4.3,0a1.132,1.132,0,0,1-1.045-.464l-1.858-1.858a1.472,1.472,0,0,1-.464-1.045V24.961a2.142,2.142,0,0,1,.58-1.393l3.947-3.947a1.923,1.923,0,0,1,1.393-.58h3.831a.548.548,0,0,0,.58-.58V14.628a2.142,2.142,0,0,1,.58-1.393l5.341-5.341a1.923,1.923,0,0,1,1.393-.58h5.341v7.43a1.163,1.163,0,0,1-1.161,1.161h-2.9V13.467a.308.308,0,0,0-.348-.348H56.683a.308.308,0,0,0-.348.348v1.974a1.054,1.054,0,0,1-.348.813l-6.734,6.734a1.054,1.054,0,0,1-.813.348H45.77a.5.5,0,0,0-.464.464v3.251a.5.5,0,0,0,.464.464H49.02a.5.5,0,0,0,.464-.464v-2.67a1.054,1.054,0,0,1,.348-.813l6.734-6.734a1.054,1.054,0,0,1,.813-.348h1.858v7.2H65.39l12.771-12.19a.7.7,0,0,1,1.161.464.88.88,0,0,1-.232.464L67.364,23.684H79.671l10.1-9.752a.7.7,0,0,1,1.161.464.88.88,0,0,1-.232.464l-9.172,8.824H93.835l7.546-7.2a.7.7,0,0,1,1.161.464.88.88,0,0,1-.232.464l-6.5,6.269h19.853C106.722,12.423,91.513,5.108,74.1,5.108ZM61.559,37.848H56.1a.794.794,0,0,0-.813.813v5.457a.794.794,0,0,0,.813.813h5.457a.794.794,0,0,0,.813-.813V38.661a.978.978,0,0,0-.813-.813ZM37.527,32.856a.5.5,0,0,1,.464.464v3.135a.5.5,0,0,1-.464.464H34.392a.5.5,0,0,1-.464-.464V33.32a.5.5,0,0,1,.464-.464Zm-5.8-10.913H29.168a.308.308,0,0,0-.348.348v2.554a.308.308,0,0,0,.348.348h2.554a.308.308,0,0,0,.348-.348V22.291c.116-.232-.116-.348-.348-.348Zm27.051,3.135H65.39l12.655,12.19a.659.659,0,1,0,.929-.929L67.364,25.077H79.671l10.1,9.752A.659.659,0,1,0,90.7,33.9l-9.172-8.824H93.835l7.546,7.2a.659.659,0,1,0,.929-.929l-6.5-6.269h19.853C106.838,36.339,91.513,43.769,74.1,43.769a61.79,61.79,0,0,1-9.4-.7v-6.85a.916.916,0,0,0-.929-.929h-8.94a1.288,1.288,0,0,1-1.277-1.277V26.354a1.288,1.288,0,0,1,1.277-1.277ZM29.284,8.127h4.76a.749.749,0,0,1,.7.7v4.412a1.054,1.054,0,0,0,.348.813l2.206,2.206a1.054,1.054,0,0,0,.813.348h1.858a.308.308,0,0,1,.348.348v2.438a.308.308,0,0,1-.348.348H37.527a.308.308,0,0,1-.348-.348V17.531a1.054,1.054,0,0,0-.348-.813l-2.206-2.206a1.254,1.254,0,0,0-.813-.348c-1.161.116-3.483,0-4.412,0a.749.749,0,0,1-.7-.7V8.824A.581.581,0,0,1,29.284,8.127Z" transform="translate(4.617)"/></g><g transform="translate(110.702 -70.218)"><path class="b" d="M1.569,66.019V61.741H0v-.856H4.136v.856H2.567v4.278Zm3.565,0V60.885h3.85v.856H6.132v1.141H8.7v.856H6.132v1.426H8.984v.856Zm8.557-2,1,.285a2.757,2.757,0,0,1-.713,1.283,2.409,2.409,0,0,1-1.426.428,2.362,2.362,0,0,1-1.711-.713,2.711,2.711,0,0,1-.713-1.854,2.821,2.821,0,0,1,.713-2,2.362,2.362,0,0,1,1.711-.713,2.145,2.145,0,0,1,1.569.57,2.3,2.3,0,0,1,.57,1l-1,.285c0-.285-.143-.428-.428-.57a1.089,1.089,0,0,0-.713-.285,1.3,1.3,0,0,0-1,.428c-.285.285-.285.713-.285,1.283a3.068,3.068,0,0,0,.285,1.426,1.233,1.233,0,0,0,.856.428,1.089,1.089,0,0,0,.713-.285,2.3,2.3,0,0,0,.57-1Zm2.282,2V60.885h1l2.139,3.423V60.885h.856v5.134h-1L16.828,62.6v3.423Zm5.277-2.567a2.848,2.848,0,0,1,.285-1.283c.143-.285.285-.428.428-.713a1.213,1.213,0,0,1,.713-.428,2.78,2.78,0,0,1,1.141-.143,2.711,2.711,0,0,1,1.854.713,2.821,2.821,0,0,1,.713,2,3.091,3.091,0,0,1-.713,2,2.464,2.464,0,0,1-1.854.713,2.711,2.711,0,0,1-1.854-.713,4.244,4.244,0,0,1-.713-2.139Zm1.141-.143a1.743,1.743,0,0,0,.428,1.283,1.379,1.379,0,0,0,2,0,2.139,2.139,0,0,0,0-2.567,1.379,1.379,0,0,0-2,0,1.743,1.743,0,0,0-.428,1.283Zm5.134,2.71V60.885h1v4.278h2.567v.856Zm4.563-2.567a2.848,2.848,0,0,1,.285-1.283c.143-.285.285-.428.428-.713a1.213,1.213,0,0,1,.713-.428,2.78,2.78,0,0,1,1.141-.143,2.711,2.711,0,0,1,1.854.713,2.821,2.821,0,0,1,.713,2,3.091,3.091,0,0,1-.713,2,2.464,2.464,0,0,1-1.854.713,2.711,2.711,0,0,1-1.854-.713,3.223,3.223,0,0,1-.713-2.139Zm1-.143a1.743,1.743,0,0,0,.428,1.283,1.379,1.379,0,0,0,2,0,2.139,2.139,0,0,0,0-2.567,1.379,1.379,0,0,0-2,0,1.743,1.743,0,0,0-.428,1.283Zm7.558.713v-.856h2.282v2a6.2,6.2,0,0,1-1,.57,4.164,4.164,0,0,1-1.283.285,4.219,4.219,0,0,1-1.426-.285,1.917,1.917,0,0,1-.856-1,3.708,3.708,0,0,1,0-2.852,3.332,3.332,0,0,1,1-1,2.848,2.848,0,0,1,1.283-.285,2.129,2.129,0,0,1,1.426.428,1.605,1.605,0,0,1,.713,1.141l-1,.143c-.143-.285-.143-.428-.428-.57a1.089,1.089,0,0,0-.713-.285,1.619,1.619,0,0,0-1.141.428,1.743,1.743,0,0,0-.428,1.283,2.129,2.129,0,0,0,.428,1.426,1.531,1.531,0,0,0,1.711.285c.285-.143.428-.143.57-.285v-.57Zm3.565,2V60.885h1v5.134Zm6.988,0H50.056l-.428-1.141h-2L47.2,66.019H46.063l2-5.134H49.2l2,5.134ZM49.343,63.88l-.713-1.854-.713,1.854Zm5.277,2.139V60.885h3.85v.856H55.617v1.141h2.567v.856H55.617v1.426H58.47v.856Zm7.843-5.277h2.852c.143,0,.428.143.57.143l.428.428a.857.857,0,0,1,.143.57,1.286,1.286,0,0,1-.143.713,1.969,1.969,0,0,1-.57.428,3.117,3.117,0,0,1,.713.428c.143.285.285.428.285.713a1.286,1.286,0,0,1-.143.713,1.969,1.969,0,0,1-.428.57c-.143.143-.428.143-.713.285H62.463V60.743Zm1,.856v1.141h1.426c.143,0,.285-.143.428-.143a.572.572,0,0,0-.428-1H63.461Zm0,2.139v1.426h1.711c.143,0,.285-.143.428-.143a.713.713,0,0,0,0-.856l-.285-.285a5.042,5.042,0,0,0-.856-.143Zm4.563,2.282V60.885h1v5.134Zm2.139-2.567a2.848,2.848,0,0,1,.285-1.283c.143-.285.285-.428.428-.713a1.213,1.213,0,0,1,.713-.428,2.78,2.78,0,0,1,1.141-.143,2.711,2.711,0,0,1,1.854.713,2.821,2.821,0,0,1,.713,2,3.091,3.091,0,0,1-.713,2,2.464,2.464,0,0,1-1.854.713,2.711,2.711,0,0,1-1.854-.713,4.244,4.244,0,0,1-.713-2.139ZM71.3,63.31a1.743,1.743,0,0,0,.428,1.283,1.379,1.379,0,0,0,2,0,2.139,2.139,0,0,0,0-2.567,1.379,1.379,0,0,0-2,0A1.743,1.743,0,0,0,71.3,63.31Zm6.275,2.71V61.741H76.01v-.856h4.136v.856H78.577v4.278Zm3.565,0V60.885h3.85v.856h-2.71v1.141h2.567v.856H82.285v1.426h2.852v.856Zm8.557-2,1,.285a2.757,2.757,0,0,1-.713,1.283,2.409,2.409,0,0,1-1.426.428,2.362,2.362,0,0,1-1.711-.713,2.711,2.711,0,0,1-.713-1.854,2.821,2.821,0,0,1,.713-2,2.362,2.362,0,0,1,1.711-.713,2.145,2.145,0,0,1,1.569.57,2.3,2.3,0,0,1,.57,1l-1,.285c0-.285-.143-.428-.428-.57a1.089,1.089,0,0,0-.713-.285,1.3,1.3,0,0,0-1,.428c-.285.285-.285.713-.285,1.283a3.068,3.068,0,0,0,.285,1.426,1.233,1.233,0,0,0,.856.428,1.089,1.089,0,0,0,.713-.285,2.3,2.3,0,0,0,.57-1Zm2.282,2V60.885h1l2.139,3.423V60.885h1v5.134h-1L92.838,62.6v3.423Zm5.277-2.567a2.848,2.848,0,0,1,.285-1.283c.143-.285.285-.428.428-.713a1.213,1.213,0,0,1,.713-.428,2.78,2.78,0,0,1,1.141-.143,2.711,2.711,0,0,1,1.854.713,2.821,2.821,0,0,1,.713,2,3.091,3.091,0,0,1-.713,2,2.464,2.464,0,0,1-1.854.713,2.711,2.711,0,0,1-1.854-.713,4.244,4.244,0,0,1-.713-2.139ZM98.4,63.31a1.743,1.743,0,0,0,.428,1.283,1.379,1.379,0,0,0,2,0,2.139,2.139,0,0,0,0-2.567,1.379,1.379,0,0,0-2,0A1.743,1.743,0,0,0,98.4,63.31Zm5.134,2.71V60.885h1v4.278H107.1v.856Zm4.563-2.567a2.848,2.848,0,0,1,.285-1.283c.143-.285.285-.428.428-.713a1.213,1.213,0,0,1,.713-.428,2.78,2.78,0,0,1,1.141-.143,2.711,2.711,0,0,1,1.854.713,2.821,2.821,0,0,1,.713,2,3.091,3.091,0,0,1-.713,2,2.464,2.464,0,0,1-1.854.713,2.711,2.711,0,0,1-1.854-.713,3.223,3.223,0,0,1-.713-2.139Zm1-.143a1.743,1.743,0,0,0,.428,1.283,1.379,1.379,0,0,0,2,0,2.139,2.139,0,0,0,0-2.567,1.379,1.379,0,0,0-2,0,1.743,1.743,0,0,0-.428,1.283Zm7.558.713v-.856h2.282v2a6.2,6.2,0,0,1-1,.57,4.164,4.164,0,0,1-1.283.285,4.219,4.219,0,0,1-1.426-.285,1.917,1.917,0,0,1-.856-1,3.708,3.708,0,0,1,0-2.852,3.332,3.332,0,0,1,1-1,2.848,2.848,0,0,1,1.283-.285,2.129,2.129,0,0,1,1.426.428,1.605,1.605,0,0,1,.713,1.141l-1,.143c-.143-.285-.143-.428-.428-.57a1.089,1.089,0,0,0-.713-.285,1.619,1.619,0,0,0-1.141.428,1.743,1.743,0,0,0-.428,1.283,2.129,2.129,0,0,0,.428,1.426,1.531,1.531,0,0,0,1.711.285c.285-.143.428-.143.57-.285v-.57Zm3.565,2V60.885h1v5.134Zm7.13,0h-1.141l-.428-1.141h-2l-.428,1.141h-1.141l2-5.134h1.141l2,5.134Zm-2-2.139-.713-1.854-.713,1.854Zm5.277-3.137h1.854a2.115,2.115,0,0,1,1,.143,3.118,3.118,0,0,1,.713.428,1.233,1.233,0,0,1,.428.856,3.165,3.165,0,0,1,.143,1.283,2.78,2.78,0,0,1-.143,1.141,1.309,1.309,0,0,1-.57.856,3.117,3.117,0,0,1-.713.428,1.809,1.809,0,0,1-.856.143h-2V60.743Zm1,1v3.423h1.283c.143,0,.285-.143.428-.285s.143-.285.285-.428c0-.285.143-.57.143-1s0-.713-.143-.856c0-.143-.143-.428-.285-.428-.143-.143-.285-.143-.428-.285h-1.283Zm4.421,1.711a2.848,2.848,0,0,1,.285-1.283c.143-.285.285-.428.428-.713a1.213,1.213,0,0,1,.713-.428,2.78,2.78,0,0,1,1.141-.143,2.711,2.711,0,0,1,1.854.713,2.821,2.821,0,0,1,.713,2,3.091,3.091,0,0,1-.713,2,2.464,2.464,0,0,1-1.854.713,2.711,2.711,0,0,1-1.854-.713,3.223,3.223,0,0,1-.713-2.139Zm1-.143a1.743,1.743,0,0,0,.428,1.283,1.379,1.379,0,0,0,2,0,2.139,2.139,0,0,0,0-2.567,1.379,1.379,0,0,0-2,0,1.743,1.743,0,0,0-.428,1.283Zm12.122,2.71h-1.141l-.428-1.141h-2l-.428,1.141h-1.141l2-5.134h1.141l2,5.134Zm-1.854-2.139-.713-1.854-.713,1.854Zm2.852,2.139V60.885h1.569l.856,3.565.856-3.565h1.569v5.134h-1V62.026l-1,3.993h-1l-1-3.993v3.993Zm10.981,0h-1.141l-.428-1.141h-2l-.428,1.141h-1.141l2-5.134h1.141l2,5.134Zm-1.854-2.139-.713-1.854-.713,1.854Zm2.424,2.139v-1l2.71-3.28H162v-.856h3.708v.856l-2.852,3.423h2.852v.856Zm4.991-2.567a2.848,2.848,0,0,1,.285-1.283c.143-.285.285-.428.428-.713a1.213,1.213,0,0,1,.713-.428,2.78,2.78,0,0,1,1.141-.143,2.711,2.711,0,0,1,1.854.713,2.821,2.821,0,0,1,.713,2,3.091,3.091,0,0,1-.713,2,2.464,2.464,0,0,1-1.854.713,2.711,2.711,0,0,1-1.854-.713,3.223,3.223,0,0,1-.713-2.139Zm1-.143a1.743,1.743,0,0,0,.428,1.283,1.379,1.379,0,0,0,2,0,2.139,2.139,0,0,0,0-2.567,1.379,1.379,0,0,0-2,0,1.743,1.743,0,0,0-.428,1.283Zm5.134,2.71V60.885h1l2.139,3.423V60.885h1v5.134h-1L173.84,62.6v3.423Zm10.268,0h-1.141l-.428-1.141h-2l-.428,1.141h-1.141l2-5.134h1.141l2,5.134Zm-1.854-2.139-.713-1.854-.713,1.854Zm2.567.428,1-.143a.784.784,0,0,0,.428.713,1.089,1.089,0,0,0,.713.285,1.069,1.069,0,0,0,.713-.143c.143-.143.285-.285.285-.428s0-.285-.143-.285c0-.143-.143-.143-.428-.285a5.608,5.608,0,0,1-.856-.285c-.57-.143-1-.285-1.141-.57a1.3,1.3,0,0,1-.428-1,1.089,1.089,0,0,1,.285-.713c.143-.285.428-.428.57-.57a2.115,2.115,0,0,1,1-.143,1.893,1.893,0,0,1,1.426.428,2.866,2.866,0,0,1,.57,1.141h-1a.741.741,0,0,0-.285-.57,1.854,1.854,0,0,0-1.426,0c-.143.143-.143.143-.143.285s0,.285.143.285a1.364,1.364,0,0,0,1,.285,4.828,4.828,0,0,1,1.141.428,1.113,1.113,0,0,1,.57.57,1.544,1.544,0,0,1,.143.856,2.027,2.027,0,0,1-.285.856,1.424,1.424,0,0,1-.713.57,2.78,2.78,0,0,1-1.141.143,1.893,1.893,0,0,1-1.426-.428A1.808,1.808,0,0,1,183.822,64.308Z" transform="translate(240 66.441)"/><path class="b" d="M3.152,60.676H.3V47.128H3.01V60.676Zm13.69,0h-2.71l-5.562-9.27h0v9.127H5.862V47.128h2.71l5.562,9.127h0V47.128h2.71V60.676ZM26.4,57.11a1.39,1.39,0,0,0-.57-1.283,6.815,6.815,0,0,0-2-.856,9.234,9.234,0,0,1-3.565-1.711,3.239,3.239,0,0,1-1.283-2.567,3.088,3.088,0,0,1,1.426-2.71,5.567,5.567,0,0,1,3.565-1,6.043,6.043,0,0,1,3.708,1.141,3.31,3.31,0,0,1,1.283,2.995h-2.71a1.948,1.948,0,0,0-.57-1.569,2.273,2.273,0,0,0-1.711-.57,2.562,2.562,0,0,0-1.569.428,1.39,1.39,0,0,0-.57,1.283,1.3,1.3,0,0,0,.57,1.141,16.049,16.049,0,0,0,2.139,1,7.657,7.657,0,0,1,3.423,1.711,3.2,3.2,0,0,1,1.141,2.71,2.935,2.935,0,0,1-1.426,2.71,5.567,5.567,0,0,1-3.565,1,7.172,7.172,0,0,1-3.85-1.141A3.867,3.867,0,0,1,18.7,56.54h2.71a1.945,1.945,0,0,0,.713,1.711,2.788,2.788,0,0,0,2,.57,3.041,3.041,0,0,0,1.711-.428,1.39,1.39,0,0,0,.57-1.283Zm14.261-7.986h-3.85V60.676H34.1V49.124h-3.85v-2h10.41v2Zm4.421,11.551H42.37V47.128h2.71V60.676ZM57.058,49.124h-3.85V60.676H50.5V49.124h-3.85v-2h10.41v2Zm12.264-2v8.984a4.428,4.428,0,0,1-1.569,3.565,5.842,5.842,0,0,1-3.993,1.283,6.1,6.1,0,0,1-3.993-1.283A4.635,4.635,0,0,1,58.2,56.112V47.128h2.995v8.984a3.5,3.5,0,0,0,.713,2.139,3.152,3.152,0,0,0,3.993,0,2.952,2.952,0,0,0,.713-2.139V47.128Zm11.979,2h-3.85V60.676h-2.71V49.124h-3.85v-2H81.3v2Zm12.264,5.99A5.95,5.95,0,0,1,92,59.25a5.181,5.181,0,0,1-4.136,1.569,5.486,5.486,0,0,1-4.136-1.711,5.95,5.95,0,0,1-1.569-4.136V52.547a5.95,5.95,0,0,1,1.569-4.136,5.853,5.853,0,0,1,8.271,0,5.95,5.95,0,0,1,1.569,4.136v2.567Zm-2.71-2.424A3.721,3.721,0,0,0,90,50.123a2.566,2.566,0,0,0-2.139-1,2.4,2.4,0,0,0-2.139,1,3.893,3.893,0,0,0-.713,2.567v2.424a5.073,5.073,0,0,0,.713,2.71,2.566,2.566,0,0,0,2.139,1,2.251,2.251,0,0,0,2.139-1,4.112,4.112,0,0,0,.856-2.71V52.69Zm19.11-3.565h-3.85V60.676h-2.71V49.124h-3.85v-2h10.41v2Zm4.278,6.132v5.419h-2.71V47.128h4.706a6,6,0,0,1,3.708,1,3.683,3.683,0,0,1,1.283,2.995,2.866,2.866,0,0,1-.57,1.854,4.75,4.75,0,0,1-1.569,1.283A2.619,2.619,0,0,1,120.8,55.4a4.642,4.642,0,0,1,.57,2v1a3.14,3.14,0,0,0,.143,1.141,1.309,1.309,0,0,0,.57.856v.143h-2.852a1.11,1.11,0,0,1-.428-1c0-.428-.143-.856-.143-1.283v-1a1.974,1.974,0,0,0-2.139-2.139h-2.282Zm0-2.139h2a3.041,3.041,0,0,0,1.711-.428,2.068,2.068,0,0,0,0-2.852,2.273,2.273,0,0,0-1.711-.57h-2v3.85Zm16.543,4.706h-4.421l-.856,2.995h-2.852l4.563-13.69h2.852l4.563,13.69h-2.852l-1-2.995Zm-3.708-2.139h3.137l-1.569-4.849h0l-1.569,4.849ZM146.9,60.676h-2.71l-5.562-9.27h0v9.127h-2.71V47.128h2.71l5.562,9.127h0V47.128h2.71V60.676Zm9.7-3.565a1.39,1.39,0,0,0-.57-1.283,7.628,7.628,0,0,0-1.854-.856,9.234,9.234,0,0,1-3.565-1.711,3.239,3.239,0,0,1-1.283-2.567,3.088,3.088,0,0,1,1.426-2.71,5.567,5.567,0,0,1,3.565-1,6.043,6.043,0,0,1,3.708,1.141,3.31,3.31,0,0,1,1.283,2.995H156.6a1.948,1.948,0,0,0-.57-1.569,2.273,2.273,0,0,0-1.711-.57,2.562,2.562,0,0,0-1.569.428,1.39,1.39,0,0,0-.57,1.283,1.3,1.3,0,0,0,.57,1.141,16.049,16.049,0,0,0,2.139,1,7.657,7.657,0,0,1,3.423,1.711,3.2,3.2,0,0,1,1.141,2.71,2.935,2.935,0,0,1-1.426,2.71,5.567,5.567,0,0,1-3.565,1,7.172,7.172,0,0,1-3.85-1.141,3.867,3.867,0,0,1-1.569-3.28h2.71a1.945,1.945,0,0,0,.713,1.711,2.788,2.788,0,0,0,2,.57,3.041,3.041,0,0,0,1.711-.428,2.707,2.707,0,0,0,.428-1.283Zm7.7,3.565h-2.71V47.128h2.71V60.676Zm5.419-5.419v5.419h-2.71V47.128h4.706a6,6,0,0,1,3.708,1,3.683,3.683,0,0,1,1.283,2.995,2.866,2.866,0,0,1-.57,1.854,4.75,4.75,0,0,1-1.569,1.283,2.619,2.619,0,0,1,1.711,1.141,4.642,4.642,0,0,1,.57,2v1a3.14,3.14,0,0,0,.143,1.141,1.31,1.31,0,0,0,.57.856v.143H174.71a1.11,1.11,0,0,1-.428-1c0-.428-.143-.856-.143-1.283v-1A1.974,1.974,0,0,0,172,55.114h-2.282Zm0-2.139h2a3.041,3.041,0,0,0,1.711-.428,2.068,2.068,0,0,0,0-2.852,2.273,2.273,0,0,0-1.711-.57h-2v3.85Zm17.256,1.569h-4.991v3.85h5.99v2.139h-8.7V47.128h8.7v2.139h-5.99V52.69h4.991Z" transform="translate(240.128 60.518)"/></g></g></svg>